<?xml version="1.0" encoding="utf-8"?>
<svg viewBox="102.468 134.9795 246.4194 287.029" width="246.4194" height="287.029" xmlns="http://www.w3.org/2000/svg" xmlns:xlink="http://www.w3.org/1999/xlink">
  <defs>
    <pattern id="pattern-0-0" patternTransform="matrix(1, 0, 0, 1, 3988.393066, 5197.607788)" xlink:href="#pattern-0"/>
    <pattern x="0" y="0" width="25" height="25" patternUnits="userSpaceOnUse" viewBox="0 0 100 100" id="pattern-0">
      <rect x="0" y="0" width="50" height="100" style="fill: black;"/>
    </pattern>
    <pattern id="pattern-0-1" patternTransform="matrix(1, 0, 0, 1, 2131.476135, 5273.234375)" xlink:href="#pattern-0"/>
    <pattern id="pattern-0-2" patternTransform="matrix(1, 0, 0, 1, 3541.708008, 3175.343506)" xlink:href="#pattern-0"/>
    <pattern id="pattern-0-3" patternTransform="matrix(1, 0, 0, 1, 2063.208008, 1410.588318)" xlink:href="#pattern-0"/>
    <pattern id="pattern-0-4" patternTransform="matrix(1, 0, 0, 1, 2706.520508, 1408.580017)" xlink:href="#pattern-0"/>
    <pattern id="pattern-0-5" patternTransform="matrix(1, 0, 0, 1, 3320.708008, 1409.139038)" xlink:href="#pattern-0"/>
    <pattern id="pattern-0-6" patternTransform="matrix(1, 0, 0, 1, 4123.012695, 1409.119934)" xlink:href="#pattern-0"/>
    <pattern id="pattern-0-7" patternTransform="matrix(1, 0, 0, 1, 4976.263916, 1409.139038)" xlink:href="#pattern-0"/>
  </defs>
  <g transform="matrix(0.06007299944758415, 0, 0, -0.050227005034685135, 12.165827751159668, 474.6584167480469)" fill="#000000" stroke="none" style="">
    <path d="M 3613.208 6753.787 C 3257.208 6718.016 2920.208 6531.335 2704.208 6251.872 C 2621.208 6143.441 2503.208 5944.463 2515.208 5932.167 C 2517.208 5929.931 2554.208 5958.995 2598.208 5994.767 C 2688.208 6068.545 2919.208 6201.569 3033.208 6244.047 C 3298.208 6342.418 3613.208 6361.422 3892.208 6294.351 C 4332.208 6188.155 4709.208 5887.453 4943.208 5455.963 C 4970.208 5405.659 4993.208 5359.827 4993.208 5354.238 C 4993.208 5349.767 4867.208 5345.295 4713.208 5345.295 L 4433.208 5345.295 L 4371.208 5415.72 C 4261.208 5537.566 4131.208 5637.054 4003.208 5697.418 C 3385.208 5989.177 2674.208 5634.819 2456.208 4926.101 C 2336.208 4534.854 2400.208 4084.36 2622.208 3749.004 C 2656.208 3698.701 2685.208 3657.341 2687.208 3657.341 C 2689.208 3657.341 2668.208 3706.526 2641.208 3766.89 C 2572.208 3921.153 2551.208 4020.642 2551.208 4199.498 C 2551.208 4320.226 2555.208 4363.822 2576.208 4452.133 C 2642.208 4734.949 2798.208 4968.58 3019.208 5118.372 C 3195.208 5237.982 3350.208 5283.814 3552.208 5275.989 C 3739.208 5268.164 3874.208 5213.389 4020.208 5085.954 C 4078.208 5034.533 4165.208 4923.866 4192.208 4867.973 L 4204.208 4842.262 L 4904.208 4842.262 L 5605.208 4842.262 L 5599.208 4895.919 C 5588.208 4979.758 5547.208 5165.321 5517.208 5261.457 C 5363.208 5765.607 5067.208 6182.566 4647.208 6487.739 C 4462.208 6621.881 4171.208 6725.841 3903.208 6752.669 C 3777.208 6766.084 3740.208 6766.084 3613.208 6753.787 Z" style="stroke-width: 0px; stroke: url('#pattern-0-0'); paint-order: fill; fill: rgb(19, 109, 186);"/>
    <path d="M 2628.208 6592.817 C 2217.208 6367.011 1871.208 5975.763 1674.208 5512.973 C 1575.208 5280.46 1545.208 5156.379 1536.208 4947.34 C 1527.208 4715.945 1559.208 4538.207 1646.208 4344.819 C 1705.208 4211.795 1752.208 4140.252 1840.208 4047.471 C 1917.208 3966.985 2003.208 3902.15 2003.208 3923.389 C 2003.208 3930.096 1994.208 3965.867 1984.208 4004.992 C 1936.208 4182.731 1928.208 4255.391 1928.208 4518.086 C 1928.208 4802.02 1940.208 4884.741 2012.208 5117.254 C 2045.208 5226.803 2049.208 5249.16 2042.208 5296.11 C 2029.208 5386.656 2032.208 5638.172 2047.208 5727.6 C 2106.208 6065.191 2287.208 6316.708 2661.208 6579.403 C 2711.208 6615.174 2753.208 6646.474 2753.208 6648.709 C 2753.208 6658.77 2732.208 6648.709 2628.208 6592.817 Z" style="stroke-width: 0px; stroke: url('#pattern-0-1'); paint-order: fill; fill: rgb(19, 109, 186);"/>
    <path d="M 4188.208 4110.07 C 4118.208 3818.311 3901.208 3548.909 3598.208 3377.878 C 3269.208 3191.197 2878.208 3144.247 2526.208 3250.443 C 2133.208 3367.817 1805.208 3650.634 1555.208 4087.713 C 1526.208 4136.899 1503.208 4170.434 1503.208 4161.491 C 1503.208 4127.956 1568.208 3934.568 1623.208 3808.251 C 1850.208 3283.978 2231.208 2945.27 2733.208 2817.835 C 2826.208 2794.36 2862.208 2791.006 3058.208 2791.006 C 3305.208 2791.006 3376.208 2802.185 3568.208 2871.492 C 3916.208 2995.573 4207.208 3251.561 4378.208 3582.445 L 4428.208 3679.698 L 4712.208 3679.698 L 4995.208 3679.698 L 4989.208 3649.516 C 4975.208 3581.327 4871.208 3366.699 4800.208 3260.504 C 4507.208 2820.07 4018.208 2502.601 3468.208 2398.641 C 3313.208 2368.459 3022.208 2371.812 2869.208 2403.112 C 2758.208 2426.587 2595.208 2480.244 2511.208 2521.604 C 2456.208 2547.315 2464.208 2536.136 2531.208 2492.54 C 2815.208 2305.859 3199.208 2192.956 3553.208 2192.956 C 4414.208 2192.956 5191.208 2796.596 5495.208 3700.937 C 5537.208 3827.254 5587.208 4029.585 5598.208 4124.602 L 5605.208 4182.731 L 4905.208 4182.731 L 4206.208 4182.731 L 4188.208 4110.07 Z" style="stroke-width: 0px; stroke: url('#pattern-0-2'); paint-order: fill; fill: rgb(19, 109, 186);"/>
    <path d="M 2000.208 1790.53 C 1904.208 1762.584 1827.208 1692.159 1784.208 1590.435 C 1762.208 1536.778 1758.208 1513.303 1758.208 1421.639 C 1758.208 1290.851 1782.208 1223.779 1854.208 1147.766 C 1925.208 1073.987 1980.208 1049.395 2083.208 1048.277 C 2201.208 1047.159 2260.208 1070.634 2335.208 1152.237 C 2367.208 1188.008 2393.208 1220.426 2393.208 1227.133 C 2393.208 1239.429 2291.208 1309.854 2273.208 1309.854 C 2266.208 1309.854 2252.208 1297.558 2242.208 1283.026 C 2215.208 1245.019 2144.208 1209.247 2095.208 1209.247 C 2037.208 1209.247 1994.208 1231.604 1956.208 1279.672 C 1897.208 1355.686 1891.208 1448.468 1939.208 1541.249 C 1999.208 1656.388 2164.208 1664.213 2247.208 1555.781 L 2275.208 1517.774 L 2317.208 1543.485 C 2400.208 1594.906 2400.208 1594.906 2378.208 1640.738 C 2335.208 1730.166 2230.208 1792.766 2113.208 1797.237 C 2072.208 1799.473 2021.208 1796.119 2000.208 1790.53 Z" style="stroke-width: 0px; stroke: url('#pattern-0-3'); paint-order: fill; fill: rgb(19, 109, 186);"/>
    <path d="M 2648.208 1775.998 C 2645.208 1768.173 2644.208 1603.849 2645.208 1410.461 L 2648.208 1058.338 L 2721.208 1054.984 L 2793.208 1051.63 L 2793.208 1421.639 L 2793.208 1790.53 L 2723.208 1790.53 C 2675.208 1790.53 2651.208 1786.058 2648.208 1775.998 Z" style="stroke-width: 0px; stroke: url('#pattern-0-4'); paint-order: fill; fill: rgb(19, 109, 186);"/>
    <path d="M 3043.208 1712.28 L 3043.208 1635.149 L 3151.208 1631.795 L 3258.208 1628.441 L 3261.208 1341.154 L 3263.208 1052.748 L 3333.208 1052.748 L 3403.208 1052.748 L 3403.208 1343.39 L 3403.208 1634.031 L 3513.208 1634.031 L 3623.208 1634.031 L 3623.208 1712.28 L 3623.208 1790.53 L 3333.208 1790.53 L 3043.208 1790.53 L 3043.208 1712.28 Z" style="stroke-width: 0px; stroke: url('#pattern-0-5'); paint-order: fill; fill: rgb(19, 109, 186);"/>
    <path d="M 3873.208 1421.639 L 3873.208 1052.748 L 3943.208 1052.748 L 4013.208 1052.748 L 4013.208 1130.998 L 4013.208 1209.247 L 4081.208 1209.247 L 4148.208 1209.247 L 4191.208 1130.998 L 4234.208 1052.748 L 4320.208 1052.748 C 4420.208 1052.748 4419.208 1047.159 4342.208 1171.241 L 4290.208 1253.961 L 4330.208 1302.029 C 4380.208 1363.511 4398.208 1418.286 4397.208 1512.185 C 4395.208 1639.62 4330.208 1740.227 4225.208 1774.88 C 4195.208 1784.941 4128.208 1790.53 4026.208 1790.53 L 3873.208 1790.53 L 3873.208 1421.639 Z M 4184.208 1616.145 C 4215.208 1598.26 4243.208 1542.367 4243.208 1498.771 C 4243.208 1455.175 4212.208 1401.518 4177.208 1382.514 C 4154.208 1370.218 4123.208 1365.747 4080.208 1367.982 L 4018.208 1371.336 L 4015.208 1487.592 C 4014.208 1552.428 4015.208 1611.674 4017.208 1619.499 C 4025.208 1640.738 4146.208 1638.502 4184.208 1616.145 Z" style="stroke-width: 0px; stroke: url('#pattern-0-6'); paint-order: fill; fill: rgb(19, 109, 186);"/>
    <path d="M 4773.208 1441.76 C 4700.208 1249.49 4638.208 1082.93 4635.208 1071.752 C 4631.208 1053.866 4638.208 1051.63 4709.208 1054.984 L 4788.208 1058.338 L 4810.208 1111.994 L 4833.208 1164.533 L 4990.208 1164.533 L 5148.208 1164.533 L 5170.208 1108.641 L 5192.208 1052.748 L 5267.208 1052.748 C 5315.208 1052.748 5343.208 1057.22 5343.208 1065.045 C 5343.208 1071.752 5282.208 1237.194 5207.208 1433.935 L 5071.208 1790.53 L 4989.208 1790.53 L 4907.208 1790.53 L 4773.208 1441.76 Z M 5041.208 1443.996 C 5064.208 1382.514 5083.208 1327.74 5083.208 1321.033 C 5083.208 1314.325 5046.208 1309.854 4988.208 1309.854 C 4936.208 1309.854 4893.208 1314.325 4893.208 1318.797 C 4893.208 1327.74 4969.208 1527.835 4979.208 1546.838 C 4991.208 1566.96 5001.208 1550.192 5041.208 1443.996 Z" style="stroke-width: 0px; stroke: url('#pattern-0-7'); paint-order: fill; fill: rgb(19, 109, 186);"/>
  </g>
</svg>