<?xml version="1.0" encoding="utf-8"?>
<svg viewBox="260.928 292.745 95.5 103.5" width="95.5" height="103.5" xmlns="http://www.w3.org/2000/svg">
  <path fill-rule="evenodd" clip-rule="evenodd" d="M 321.781 292.745 L 326.663 292.745 C 329.617 292.745 332.162 292.745 334.196 293.043 C 336.382 293.361 338.474 294.078 340.175 295.917 C 341.219 297.053 341.872 298.348 342.29 299.73 L 345.665 298.209 C 345.723 298.18 345.785 298.151 345.847 298.127 C 347.078 297.569 348.317 297.006 349.379 296.717 C 350.56 296.394 352.302 296.173 353.954 297.366 C 355.606 298.56 356.09 300.39 356.268 301.694 C 356.428 302.869 356.428 304.328 356.428 305.772 C 356.428 305.839 356.428 305.911 356.428 305.984 L 356.428 315.611 C 356.428 315.683 356.428 315.755 356.428 315.827 C 356.428 317.273 356.428 318.731 356.268 319.906 C 356.09 321.206 355.606 323.034 353.954 324.228 C 352.302 325.423 350.56 325.2 349.379 324.878 C 348.317 324.59 347.078 324.026 345.847 323.472 C 345.785 323.444 345.723 323.414 345.665 323.386 L 342.29 321.865 C 341.872 323.246 341.219 324.541 340.175 325.677 C 338.474 327.516 336.382 328.233 334.196 328.551 C 332.162 328.849 329.617 328.849 326.663 328.849 L 321.781 328.849 C 318.828 328.849 316.287 328.849 314.248 328.551 C 312.063 328.233 309.971 327.516 308.274 325.677 C 306.573 323.839 305.911 321.571 305.618 319.202 C 305.347 316.994 305.347 314.234 305.347 311.033 L 305.347 310.561 C 305.347 307.36 305.347 304.602 305.618 302.392 C 305.911 300.029 306.573 297.757 308.274 295.917 C 309.971 294.078 312.063 293.361 314.248 293.043 C 316.287 292.745 318.828 292.745 321.781 292.745 Z M 343.102 314.408 L 348.224 316.724 C 348.824 316.994 349.321 317.219 349.756 317.402 C 349.765 316.897 349.765 316.315 349.765 315.611 L 349.765 305.984 C 349.765 305.281 349.765 304.698 349.756 304.193 C 349.321 304.381 348.824 304.602 348.224 304.872 L 343.102 307.187 L 343.102 310.152 C 343.102 310.287 343.102 310.422 343.102 310.561 L 343.102 311.033 C 343.102 311.173 343.102 311.308 343.102 311.447 L 343.102 314.408 Z M 336.44 310.798 C 336.44 307.293 336.431 305.025 336.222 303.355 C 336.031 301.79 335.716 301.299 335.462 301.025 C 335.209 300.751 334.756 300.409 333.313 300.197 C 331.771 299.976 329.679 299.966 326.445 299.966 L 322.004 299.966 C 318.765 299.966 316.678 299.976 315.136 300.197 C 313.688 300.409 313.235 300.751 312.982 301.025 C 312.729 301.299 312.418 301.79 312.223 303.355 C 312.014 305.025 312.009 307.293 312.009 310.798 C 312.009 314.303 312.014 316.569 312.223 318.239 C 312.418 319.804 312.729 320.295 312.982 320.569 C 313.235 320.844 313.688 321.186 315.136 321.397 C 316.678 321.62 318.765 321.629 322.004 321.629 L 326.445 321.629 C 329.679 321.629 331.771 321.62 333.313 321.397 C 334.756 321.186 335.209 320.844 335.462 320.569 C 335.716 320.295 336.031 319.804 336.222 318.239 C 336.431 316.569 336.44 314.303 336.44 310.798 Z M 297.356 292.745 L 297.573 292.745 C 299.412 292.745 300.905 294.362 300.905 296.355 C 300.905 298.348 299.412 299.966 297.573 299.966 C 290.191 299.966 284.945 299.971 280.921 300.486 C 276.972 300.992 274.631 301.949 272.868 303.519 C 272.135 304.169 271.464 304.895 270.864 305.684 C 269.416 307.601 268.537 310.133 268.071 314.413 C 267.595 318.774 267.591 324.46 267.591 332.461 L 267.591 339.681 C 267.591 341.89 267.591 343.888 267.604 345.698 L 349.747 345.698 C 349.761 343.888 349.765 341.89 349.765 339.681 L 349.765 334.868 C 349.765 332.875 351.253 331.257 353.097 331.257 C 354.936 331.257 356.428 332.875 356.428 334.868 L 356.428 339.946 C 356.428 343.132 356.428 346.026 356.366 348.63 C 356.406 348.852 356.428 349.079 356.428 349.309 C 356.428 349.617 356.392 349.916 356.321 350.205 C 356.25 352.342 356.126 354.272 355.908 356.01 C 355.371 360.343 354.22 363.992 351.546 366.89 C 348.872 369.788 345.51 371.035 341.508 371.617 C 337.657 372.175 332.762 372.175 326.69 372.175 L 312.009 372.175 L 312.009 389.024 L 326.445 389.024 C 328.284 389.024 329.777 390.642 329.777 392.635 C 329.777 394.628 328.284 396.245 326.445 396.245 L 290.911 396.245 C 289.067 396.245 287.579 394.628 287.579 392.635 C 287.579 390.642 289.067 389.024 290.911 389.024 L 305.347 389.024 L 305.347 372.175 L 290.666 372.175 C 284.59 372.175 279.695 372.175 275.844 371.617 C 271.846 371.035 268.479 369.788 265.805 366.89 C 263.131 363.992 261.981 360.343 261.443 356.01 C 261.23 354.272 261.101 352.342 261.03 350.205 C 260.964 349.916 260.928 349.617 260.928 349.309 C 260.928 349.079 260.946 348.852 260.986 348.63 C 260.928 346.026 260.928 343.132 260.928 339.946 L 260.928 332.224 C 260.928 324.512 260.928 318.404 261.452 313.566 C 261.994 308.602 263.131 304.52 265.716 301.107 C 266.591 299.946 267.573 298.888 268.639 297.934 C 271.788 295.133 275.559 293.905 280.139 293.318 C 284.599 292.745 290.24 292.745 297.356 292.745 Z M 267.84 352.919 C 267.897 353.67 267.964 354.378 268.048 355.047 C 268.484 358.581 269.288 360.448 270.518 361.781 C 271.744 363.116 273.472 363.983 276.732 364.458 C 280.086 364.944 284.532 364.955 290.911 364.955 L 326.445 364.955 C 332.82 364.955 337.266 364.944 340.624 364.458 C 343.88 363.983 345.608 363.116 346.838 361.781 C 348.064 360.448 348.868 358.581 349.308 355.047 C 349.388 354.378 349.454 353.67 349.512 352.919 L 267.84 352.919 Z" fill="#1C274C" style=""/>
</svg>