<?xml version="1.0" encoding="utf-8"?>
<svg viewBox="308.678 273.495 42 40" width="42" height="40" xmlns="http://www.w3.org/2000/svg">
  <path opacity="0.4" d="M 309.269 308.811 C 309.453 310.527 310.635 311.887 312.409 312.247 C 315.207 312.813 320.483 313.495 329.678 313.495 C 338.872 313.495 344.147 312.813 346.946 312.247 C 348.719 311.887 349.901 310.527 350.087 308.811 C 350.363 306.262 350.678 301.589 350.678 293.495 C 350.678 285.401 350.363 280.727 350.087 278.181 C 349.901 276.462 348.719 275.103 346.946 274.746 C 344.147 274.177 338.872 273.495 329.678 273.495 C 320.483 273.495 315.207 274.177 312.409 274.746 C 310.635 275.103 309.453 276.462 309.269 278.181 C 308.991 280.727 308.678 285.401 308.678 293.495 C 308.678 301.589 308.991 306.262 309.269 308.811 Z" fill="#637381" style=""/>
  <path d="M 334.789 296.832 C 338.282 295.114 340.662 291.694 340.662 287.752 C 340.662 282.088 335.743 277.495 329.677 277.495 C 323.609 277.495 318.692 282.088 318.692 287.752 C 318.692 291.694 321.073 295.114 324.566 296.832 C 319.89 298.496 316.317 302.378 315.21 307.164 C 315.057 307.826 315.447 308.506 316.161 308.626 C 318.724 309.06 322.971 309.495 329.68 309.495 C 336.389 309.495 340.633 309.06 343.196 308.626 C 343.908 308.506 344.298 307.828 344.145 307.168 C 343.04 302.382 339.468 298.496 334.789 296.832 Z" fill="#637381" style=""/>
</svg>